<svg version="1.1" xmlns="http://www.w3.org/2000/svg" xmlns:xlink="http://www.w3.org/1999/xlink" width="645.5" height="366.5" viewBox="0,0,645.5,366.5"><g transform="translate(2.15,2.35001)"><g stroke-miterlimit="10"><path d="M367.60001,2.4v351" fill="none" stroke="#556549" stroke-width="7.5" stroke-linecap="round"/><path d="M167.60001,5.4v347" fill="none" stroke="#556549" stroke-width="7.5" stroke-linecap="round"/><path d="M6.60001,3.4h633v352h-632z" fill="none" stroke="#556549" stroke-width="7.5" stroke-linecap="round"/><path d="M3.60001,352.4v-346h633v346z" fill="#ffffff" stroke="none" stroke-width="0" stroke-linecap="butt"/><path d="M1.60001,1.4v359" fill="none" stroke="#556549" stroke-width="7.5" stroke-linecap="round"/><path d="M254.30435,38.6508v-35.30159h131.3913v35.30159z" fill="#212121" stroke="#556549" stroke-width="7.5" stroke-linecap="butt"/><text transform="translate(296.65625,28.00001) scale(0.5,0.5)" font-size="40" xml:space="preserve" fill="#ffffff" stroke="none" stroke-width="1" stroke-linecap="butt" font-family="&quot;Nougat Extrablack&quot;, Sans Serif" font-weight="normal" text-anchor="start"><tspan x="0" dy="0">Bilan</tspan></text><g stroke="none" stroke-width="1" stroke-linecap="butt"><path d="M69.16668,24.66643c0,7.00778 -5.7016,12.70889 -12.70889,12.70889h-32.91604c-7.00729,0 -12.7084,-5.70063 -12.7084,-12.70889c0,-7.00729 5.70062,-12.7084 12.7084,-12.7084h32.91604c7.00729,0 12.70889,5.70111 12.70889,12.7084z" fill="#556549"/><path d="M66.97722,24.66643c0,5.81 -4.70944,10.51993 -10.51944,10.51993h-32.91604c-5.81,0 -10.51993,-4.70993 -10.51993,-10.51993v0c0,-5.80951 4.70993,-10.51944 10.51993,-10.51944h32.91604c5.81,0 10.51944,4.70993 10.51944,10.51944z" fill="#484f43"/><text transform="translate(17.58964,27.50471) scale(0.24306,0.24306)" font-size="40" xml:space="preserve" fill="#ffffff" font-family="&quot;Nougat Extrablack&quot;, Sans Serif" font-weight="normal" text-anchor="start"><tspan x="0" dy="0">&lt;-- HOME</tspan></text></g></g></g></svg>