<svg version="1.1" xmlns="http://www.w3.org/2000/svg" xmlns:xlink="http://www.w3.org/1999/xlink" width="58.33333" height="25.41729" viewBox="0,0,58.33333,25.41729"><g transform="translate(-290.83333,-167.29135)"><g stroke="none" stroke-miterlimit="10"><g><path d="M349.16667,179.99976c0,7.00778 -5.7016,12.70889 -12.70889,12.70889h-32.91604c-7.00729,0 -12.7084,-5.70063 -12.7084,-12.70889c0,-7.00729 5.70062,-12.7084 12.7084,-12.7084h32.91604c7.00729,0 12.70889,5.70111 12.70889,12.7084z" fill="#556549"/><path d="M346.97722,179.99976c0,5.81 -4.70944,10.51993 -10.51944,10.51993h-32.91604c-5.81,0 -10.51993,-4.70993 -10.51993,-10.51993v0c0,-5.80951 4.70993,-10.51944 10.51993,-10.51944h32.91604c5.81,0 10.51944,4.70993 10.51944,10.51944z" fill="#484f43"/><text transform="translate(297.58963,182.83804) scale(0.24306,0.24306)" font-size="40" xml:space="preserve" fill="#ffffff" font-family="&quot;Nougat Extrablack&quot;, Sans Serif" font-weight="normal" text-anchor="start"><tspan x="0" dy="0">&lt;-- HOME</tspan></text></g></g></g></svg>